Coordinates
version=1
nRows=13
nColumns=22
inDegrees=yes

Units are S.I. units (second, meters, Newtons, ...)
If the header above contains a line with 'inDegrees', this indicates whether rotational values are in degrees (yes) or radians (no).

endheader
time	pelvis_tilt	pelvis_list	pelvis_rotation	pelvis_tx	pelvis_ty	pelvis_tz	hip_flexion_r	hip_adduction_r	hip_rotation_r	knee_angle_r	ankle_angle_r	subtalar_angle_r	hip_flexion_l	hip_adduction_l	hip_rotation_l	knee_angle_l	ankle_angle_l	subtalar_angle_l	lumbar_extension	lumbar_bending	lumbar_rotation
      3.16000000	      2.05315654	      1.35331375	     81.98531521	     -0.13563011	      1.00507547	     -0.44092603	      2.77147920	      2.77060955	     -1.25639468	    -38.26733807	     11.13999857	      6.56353282	     16.41339876	     -0.74933744	     -7.02631949	    -21.73032929	      5.29150617	     -5.31545304	    -12.26292208	      1.45729523	      5.54326867
      3.17000000	      1.60567050	      1.12241480	     81.84075063	     -0.13622766	      1.00471949	     -0.44484693	      4.22472500	      2.20319207	     -0.99653899	    -40.58497312	     10.64794035	      6.69457674	     16.32287648	     -0.25771438	     -7.27515383	    -21.46636021	      5.44553941	     -5.40525772	    -11.95700140	      0.95228388	      5.42919793
      3.18000000	      1.18334777	      0.92317807	     81.74071137	     -0.13690122	      1.00438004	     -0.44862699	      5.62746283	      1.65531121	     -0.77616544	    -42.81211152	     10.26732112	      6.72560900	     16.22392809	      0.22597981	     -7.47143507	    -21.22327913	      5.59289814	     -5.49877157	    -11.70707574	      0.48711751	      5.26739413
      3.19000000	      0.80225034	      0.75481249	     81.69479785	     -0.13763545	      1.00408582	     -0.45227225	      6.95905892	      1.14642265	     -0.59767309	    -44.90404286	     10.01695922	      6.67155433	     16.11427171	      0.68487721	     -7.60472572	    -21.00118439	      5.72747214	     -5.59264124	    -11.51408525	      0.07574148	      5.04717088
      3.20000000	      0.47380820	      0.60675118	     81.69526044	     -0.13839254	      1.00383302	     -0.45577965	      8.22421375	      0.68157515	     -0.48745068	    -46.83570371	      9.90588435	      6.54502859	     16.00479051	      1.10038392	     -7.67544231	    -20.80817361	      5.86832391	     -5.68692185	    -11.36423161	     -0.27478561	      4.80020333
      3.21000000	      0.19586018	      0.47308974	     81.74333612	     -0.13919256	      1.00364965	     -0.45916010	      9.41196891	      0.27260989	     -0.40135501	    -48.56430308	      9.92736240	      6.34772247	     15.89282162	      1.47615507	     -7.68519444	    -20.62918384	      5.99315121	     -5.77794919	    -11.24975850	     -0.55680254	      4.49873985
      3.22000000	     -0.02357583	      0.36341290	     81.83039428	     -0.14000741	      1.00357079	     -0.46243065	     10.50349022	     -0.07765647	     -0.35595278	    -50.06485833	     10.06488876	      6.08027953	     15.76084290	      1.80101345	     -7.64180370	    -20.45926419	      6.11618725	     -5.86238846	    -11.17642676	     -0.76965757	      4.17264091
      3.23000000	     -0.17950368	      0.37023910	     81.96496424	     -0.14085565	      1.00379314	     -0.46565373	     11.37248979	     -0.38271726	     -0.36571177	    -51.29203736	     10.34522432	      5.79270916	     15.48474851	      2.08756218	     -7.54607479	    -20.25978977	      6.19554597	     -5.91562014	    -11.25110103	     -0.91967968	      3.81404012
      3.24000000	     -0.29105226	      0.19829460	     82.10807873	     -0.14169245	      1.00373965	     -0.46865474	     12.40467448	     -0.59783003	     -0.37691436	    -52.33527669	     10.61343918	      5.33076480	     15.44383687	      2.29581160	     -7.41981283	    -20.13308221	      6.33940957	     -6.00976007	    -11.13024505	     -0.98596865	      3.48612596
      3.25000000	     -0.34810316	      0.14628769	     82.28660103	     -0.14255438	      1.00401977	     -0.47166275	     13.20124561	     -0.77483625	     -0.43140017	    -53.08802921	     10.96215949	      4.90804280	     15.23099991	      2.47578515	     -7.24552112	    -19.93645744	      6.42612611	     -6.06167975	    -11.14978752	     -1.00018547	      3.12374654
      3.26000000	     -0.36428019	      0.05939736	     82.48176842	     -0.14343183	      1.00428001	     -0.47450624	     13.98107402	     -0.89652286	     -0.50440365	    -53.62483689	     11.33047091	      4.41189288	     15.08213715	      2.60271787	     -7.07027119	    -19.78410846	      6.52234198	     -6.12079910	    -11.14337603	     -0.95798071	      2.78078803
      3.27000000	     -0.35450738	      0.03461200	     82.70514002	     -0.14435267	      1.00473162	     -0.47732818	     14.60936468	     -1.00236103	     -0.60773103	    -53.91196557	     11.71866349	      4.02069993	     14.83909051	      2.71831080	     -6.86828142	    -19.58067284	      6.57513440	     -6.14296327	    -11.20762726	     -0.88635731	      2.40392365
      3.28000000	     -0.31531093	     -0.04537001	     82.93753975	     -0.14528692	      1.00513635	     -0.48007443	     15.23420282	     -1.06323528	     -0.72555906	    -53.98721469	     12.07555667	      3.55390725	     14.64966041	      2.79563070	     -6.64283934	    -19.36653105	      6.62686890	     -6.16906719	    -11.20551271	     -0.76700267	      2.04802896
